# xmcd
#
# Track frame offsets:
# 150
# 18924
# 36233
# 62090
# 82333
# 92937
# 115278
# 138373
# 157510
# 174093
# 184976
# 206237
#
# Disc length: 3108 seconds
#
# Revision: 1
# Processed by: cddbd v1.5.1PL0 Copyright (c) Steve Scherf et al.
# Submitted via: Easy CD Ripper v2.31
#
DISCID=9f0c220c
DTITLE=Dixie chicks - HOME
DYEAR=2003
DGENRE=Country
TTITLE0=Dixie Chicks
TTITLE1=Dixie Chicks
TTITLE2=Dixie Chicks
TTITLE3=Dixie Chicks
TTITLE4=Dixie Chicks
TTITLE5=Dixie Chicks
TTITLE6=Dixie Chicks
TTITLE7=Dixie Chicks
TTITLE8=Dixie Chicks
TTITLE9=Dixie Chicks
TTITLE10=Dixie Chicks
TTITLE11=home - Dixie Chicks
EXTD=
EXTT0=
EXTT1=
EXTT2=
EXTT3=
EXTT4=
EXTT5=
EXTT6=
EXTT7=
EXTT8=
EXTT9=
EXTT10=
EXTT11=
PLAYORDER=
